<?xml version="1.0" encoding="UTF-8" standalone="no"?>
<svg
   width="254.61641mm"
   height="147.96059mm"
   viewBox="0 0 254.61641 147.96059"
   version="1.1"
   id="track-svg"
   inkscape:version="1.2.2 (b0a84865, 2022-12-01)"
   sodipodi:docname="track.svg"
   xmlns:inkscape="http://www.inkscape.org/namespaces/inkscape"
   xmlns:sodipodi="http://sodipodi.sourceforge.net/DTD/sodipodi-0.dtd"
   xmlns="http://www.w3.org/2000/svg"
   xmlns:svg="http://www.w3.org/2000/svg"
   xmlns:rdf="http://www.w3.org/1999/02/22-rdf-syntax-ns#"
   xmlns:cc="http://creativecommons.org/ns#"
   xmlns:dc="http://purl.org/dc/elements/1.1/">
  <defs
     id="defs2" />
  <sodipodi:namedview
     id="base"
     pagecolor="#ffffff"
     bordercolor="#666666"
     borderopacity="1.0"
     inkscape:pageopacity="0.0"
     inkscape:pageshadow="2"
     inkscape:zoom="0.78256479"
     inkscape:cx="631.25764"
     inkscape:cy="275.37656"
     inkscape:document-units="mm"
     inkscape:current-layer="layer1"
     showgrid="false"
     inkscape:window-width="1512"
     inkscape:window-height="945"
     inkscape:window-x="0"
     inkscape:window-y="37"
     inkscape:window-maximized="0"
     inkscape:snap-global="false"
     fit-margin-top="0"
     fit-margin-left="0"
     fit-margin-right="0"
     fit-margin-bottom="0"
     inkscape:document-rotation="0"
     inkscape:showpageshadow="2"
     inkscape:pagecheckerboard="0"
     inkscape:deskcolor="#d1d1d1" />
  <metadata
     id="metadata5">
    <rdf:RDF>
      <cc:Work
         rdf:about="">
        <dc:format>image/svg+xml</dc:format>
        <dc:type
           rdf:resource="http://purl.org/dc/dcmitype/StillImage" />
        <dc:title />
      </cc:Work>
    </rdf:RDF>
  </metadata>
  <g
     inkscape:label="Layer 1"
     inkscape:groupmode="layer"
     id="layer1"
     transform="translate(-20.032494,-117.77103)">
    <path
       id="track"
       style="fill:none;stroke:#000000;stroke-width:3;stroke-linecap:butt;stroke-linejoin:miter;stroke-miterlimit:4;stroke-dasharray:none;stroke-opacity:1"
       d="m 259.20771,193.15809 c 0,0 -3.86029,56.66912 -56.66911,56.97795 -52.80883,0.30882 -78.13235,0.1544 -78.13235,0.1544 0,0 -68.404415,4.32353 -69.176474,-20.84559 -0.456126,-14.86969 5.643723,-21.84162 15.589081,-23.66058 6.888615,-1.2599 18.254329,0.1193 24.712387,3.27823 7.469606,3.65373 17.223336,7.42239 26.713236,7.56618 10.19117,0.15441 24.08647,-3.92439 26.25,-10.96324 2.16353,-7.03885 1.54411,-12.97059 1.54411,-12.97059 m 109.16912,-0.46324 c 0,0 -3.86029,-56.6691 -56.66911,-56.97793 -52.80883,-0.30882 -78.13235,-0.15442 -78.13235,-0.15442 0,0 -68.404415,-4.32353 -69.176474,20.84559 -0.456126,14.86969 5.643723,21.84162 15.589081,23.66058 6.888615,1.2599 18.254329,-0.1193 24.712387,-3.27823 7.469606,-3.65373 17.223336,-7.42239 26.713236,-7.56618 10.19117,-0.15441 24.08647,3.92439 26.25,10.96324 2.16353,7.03885 1.54411,12.97059 1.54411,12.97059"
       inkscape:connector-curvature="0"
       sodipodi:nodetypes="cscsssssccscsssssc" />
  </g>
</svg>
